<svg width="153" height="153" viewBox="0 0 153 153" fill="none" xmlns="http://www.w3.org/2000/svg">
  <mask id="mask0_3_2" style="mask-type:alpha" maskUnits="userSpaceOnUse" x="0" y="0" width="153" height="153">
    <circle cx="76.5" cy="76.5" r="76.5" fill="#D9D9D9"/>
  </mask>
  <g>
    <!-- Additional lines -->
    <rect x="-20" y="0" width="192" height="0.75" fill="#15803D"/>
    <rect x="-20" y="5" width="192" height="0.75" fill="#15803D"/>
    <rect x="-20" y="10" width="192" height="0.75" fill="#15803D"/>
    <rect x="-20" y="15" width="192" height="0.75" fill="#15803D"/>
    <rect x="-20" y="20" width="192" height="0.75" fill="#15803D"/>
    <rect x="-20" y="25" width="192" height="0.75" fill="#15803D"/>
    <rect x="-20" y="30" width="192" height="0.75" fill="#15803D"/>
    <rect x="-20" y="35" width="192" height="0.75" fill="#15803D"/>
    <rect x="-20" y="40" width="192" height="0.75" fill="#15803D"/>
    <rect x="-20" y="45" width="192" height="0.75" fill="#15803D"/>
    <rect x="-20" y="50" width="192" height="0.75" fill="#15803D"/>
    <rect x="-20" y="55" width="192" height="0.75" fill="#15803D"/>
    <rect x="-20" y="60" width="192" height="0.75" fill="#15803D"/>
    <rect x="-20" y="65" width="192" height="0.75" fill="#15803D"/>
    <rect x="-20" y="70" width="192" height="0.75" fill="#15803D"/>
    <rect x="-20" y="75" width="192" height="0.75" fill="#15803D"/>
    <rect x="-20" y="80" width="192" height="0.75" fill="#15803D"/>
    <rect x="-20" y="85" width="192" height="0.75" fill="#15803D"/>
    <rect x="-20" y="90" width="192" height="0.75" fill="#15803D"/>
    <rect x="-20" y="95" width="192" height="0.75" fill="#15803D"/>
    <rect x="-20" y="100" width="192" height="0.75" fill="#15803D"/>
    <rect x="-20" y="105" width="192" height="0.75" fill="#15803D"/>
    <rect x="-20" y="110" width="192" height="0.75" fill="#15803D"/>
    <rect x="-20" y="115" width="192" height="0.75" fill="#15803D"/>
    <rect x="-20" y="120" width="192" height="0.75" fill="#15803D"/>
    <rect x="-20" y="125" width="192" height="0.75" fill="#15803D"/>
    <rect x="-20" y="130" width="192" height="0.75" fill="#15803D"/>
    <rect x="-20" y="135" width="192" height="0.75" fill="#15803D"/>
    <rect x="-20" y="140" width="192" height="0.75" fill="#15803D"/>
    <rect x="-20" y="145" width="192" height="0.75" fill="#15803D"/>
    <rect x="-20" y="150" width="192" height="0.75" fill="#15803D"/>
    <rect x="-20" y="155" width="192" height="0.75" fill="#15803D"/>
    <rect x="-20" y="160" width="192" height="0.75" fill="#15803D"/>
    <rect x="-20" y="165" width="192" height="0.75" fill="#15803D"/>
    <rect x="-20" y="170" width="192" height="0.75" fill="#15803D"/>
    <rect x="-20" y="175" width="192" height="0.75" fill="#15803D"/>
    <rect x="-20" y="180" width="192" height="0.75" fill="#15803D"/>
    <rect x="-20" y="185" width="192" height="0.75" fill="#15803D"/>
    <rect x="-20" y="190" width="192" height="0.75" fill="#15803D"/>
    <rect x="-20" y="195" width="192" height="0.75" fill="#15803D"/>
    <rect x="-20" y="200" width="192" height="0.75" fill="#15803D"/>
    <rect x="-20" y="205" width="192" height="0.75" fill="#15803D"/>
    <rect x="-20" y="210" width="192" height="0.75" fill="#15803D"/>
    <rect x="-20" y="215" width="192" height="0.75" fill="#15803D"/>
    <rect x="-20" y="220" width="192" height="0.75" fill="#15803D"/>
    <rect x="-20" y="225" width="192" height="0.75" fill="#15803D"/>
    <rect x="-20" y="230" width="192" height="0.75" fill="#15803D"/>
    <rect x="-20" y="235" width="192" height="0.75" fill="#15803D"/>
    <rect x="-20" y="240" width="192" height="0.75" fill="#15803D"/>
    <rect x="-20" y="245" width="192" height="0.75" fill="#15803D"/>
    <rect x="-20" y="250" width="192" height="0.75" fill="#15803D"/>
    <rect x="-20" y="255" width="192" height="0.75" fill="#15803D"/>
    <rect x="-20" y="260" width="192" height="0.75" fill="#15803D"/>
    <rect x="-20" y="265" width="192" height="0.75" fill="#15803D"/>
    <rect x="-20" y="270" width="192" height="0.75" fill="#15803D"/>
    <rect x="-20" y="275" width="192" height="0.75" fill="#15803D"/>
    <rect x="-20" y="280" width="192" height="0.75" fill="#15803D"/>
    <rect x="-20" y="285" width="192" height="0.75" fill="#15803D"/>
    <rect x="-20" y="290" width="192" height="0.75" fill="#15803D"/>
    <rect x="-20" y="295" width="192" height="0.75" fill="#15803D"/>
    <rect x="-20" y="300" width="192" height="0.75" fill="#15803D"/>
    <rect x="-20" y="305" width="192" height="0.75" fill="#15803D"/>
    <rect x="-20" y="310" width="192" height="0.75" fill="#15803D"/>
    <rect x="-20" y="315" width="192" height="0.75" fill="#15803D"/>
    <rect x="-20" y="320" width="192" height="0.75" fill="#15803D"/>
    <rect x="-20" y="325" width="192" height="0.75" fill="#15803D"/>
    <rect x="-20" y="330" width="192" height="0.75" fill="#15803D"/>
    <rect x="-20" y="335" width="192" height="0.75" fill="#15803D"/>
    <rect x="-20" y="340" width="192" height="0.75" fill="#15803D"/>
    <rect x="-20" y="345" width="192" height="0.75" fill="#15803D"/>
    <rect x="-20" y="350" width="192" height="0.75" fill="#15803D"/>
    <rect x="-20" y="355" width="192" height="0.75" fill="#15803D"/>
  </g>
</svg>
